<?xml version="1.0" encoding="UTF-8" standalone="no"?>
<!DOCTYPE svg PUBLIC "-//W3C//DTD SVG 20010904//EN"
              "http://www.w3.org/TR/2001/REC-SVG-20010904/DTD/svg10.dtd">

<svg xmlns="http://www.w3.org/2000/svg"
     width="0.2in" height="0.2in"
     viewBox="0 0 24 24">
  <path id="Path"
        fill="none" stroke='black' stroke-width="1.5"
        d="M 4.03,16.97
           C 4.03,16.97 4.00,7.00 4.00,7.00
             4.00,7.00 12.00,3.00 12.00,3.00
             12.00,3.00 20.00,7.00 20.00,7.00
             20.00,7.00 20.00,17.00 20.00,17.00
             20.00,17.00 12.06,20.69 12.06,20.69
             12.06,20.69 4.03,16.97 4.03,16.97M 20.00,7.00
           C 20.00,7.00 12.00,10.00 12.00,10.00
             12.00,10.00 4.00,7.00 4.00,7.00M 12.00,10.00
           C 12.00,10.00 12.09,20.72 12.09,20.72" />
</svg>
